<svg version="1.1" xmlns="http://www.w3.org/2000/svg" viewBox="0 0 338 338"  preserveAspectRatio="xMinYMin meet"><rect width="100%" height="100%" fill="white" cx="0" cy="0"/><path d="M4,4l10,0 0,10 -10,0 0,-10z M14,4l10,0 0,10 -10,0 0,-10z M24,4l10,0 0,10 -10,0 0,-10z M34,4l10,0 0,10 -10,0 0,-10z M44,4l10,0 0,10 -10,0 0,-10z M54,4l10,0 0,10 -10,0 0,-10z M64,4l10,0 0,10 -10,0 0,-10z M104,4l10,0 0,10 -10,0 0,-10z M114,4l10,0 0,10 -10,0 0,-10z M154,4l10,0 0,10 -10,0 0,-10z M184,4l10,0 0,10 -10,0 0,-10z M194,4l10,0 0,10 -10,0 0,-10z M224,4l10,0 0,10 -10,0 0,-10z M234,4l10,0 0,10 -10,0 0,-10z M264,4l10,0 0,10 -10,0 0,-10z M274,4l10,0 0,10 -10,0 0,-10z M284,4l10,0 0,10 -10,0 0,-10z M294,4l10,0 0,10 -10,0 0,-10z M304,4l10,0 0,10 -10,0 0,-10z M314,4l10,0 0,10 -10,0 0,-10z M324,4l10,0 0,10 -10,0 0,-10z M4,14l10,0 0,10 -10,0 0,-10z M64,14l10,0 0,10 -10,0 0,-10z M114,14l10,0 0,10 -10,0 0,-10z M124,14l10,0 0,10 -10,0 0,-10z M154,14l10,0 0,10 -10,0 0,-10z M174,14l10,0 0,10 -10,0 0,-10z M214,14l10,0 0,10 -10,0 0,-10z M224,14l10,0 0,10 -10,0 0,-10z M234,14l10,0 0,10 -10,0 0,-10z M244,14l10,0 0,10 -10,0 0,-10z M264,14l10,0 0,10 -10,0 0,-10z M324,14l10,0 0,10 -10,0 0,-10z M4,24l10,0 0,10 -10,0 0,-10z M24,24l10,0 0,10 -10,0 0,-10z M34,24l10,0 0,10 -10,0 0,-10z M44,24l10,0 0,10 -10,0 0,-10z M64,24l10,0 0,10 -10,0 0,-10z M94,24l10,0 0,10 -10,0 0,-10z M124,24l10,0 0,10 -10,0 0,-10z M144,24l10,0 0,10 -10,0 0,-10z M154,24l10,0 0,10 -10,0 0,-10z M164,24l10,0 0,10 -10,0 0,-10z M174,24l10,0 0,10 -10,0 0,-10z M204,24l10,0 0,10 -10,0 0,-10z M234,24l10,0 0,10 -10,0 0,-10z M264,24l10,0 0,10 -10,0 0,-10z M284,24l10,0 0,10 -10,0 0,-10z M294,24l10,0 0,10 -10,0 0,-10z M304,24l10,0 0,10 -10,0 0,-10z M324,24l10,0 0,10 -10,0 0,-10z M4,34l10,0 0,10 -10,0 0,-10z M24,34l10,0 0,10 -10,0 0,-10z M34,34l10,0 0,10 -10,0 0,-10z M44,34l10,0 0,10 -10,0 0,-10z M64,34l10,0 0,10 -10,0 0,-10z M104,34l10,0 0,10 -10,0 0,-10z M124,34l10,0 0,10 -10,0 0,-10z M134,34l10,0 0,10 -10,0 0,-10z M154,34l10,0 0,10 -10,0 0,-10z M174,34l10,0 0,10 -10,0 0,-10z M194,34l10,0 0,10 -10,0 0,-10z M214,34l10,0 0,10 -10,0 0,-10z M234,34l10,0 0,10 -10,0 0,-10z M264,34l10,0 0,10 -10,0 0,-10z M284,34l10,0 0,10 -10,0 0,-10z M294,34l10,0 0,10 -10,0 0,-10z M304,34l10,0 0,10 -10,0 0,-10z M324,34l10,0 0,10 -10,0 0,-10z M4,44l10,0 0,10 -10,0 0,-10z M24,44l10,0 0,10 -10,0 0,-10z M34,44l10,0 0,10 -10,0 0,-10z M44,44l10,0 0,10 -10,0 0,-10z M64,44l10,0 0,10 -10,0 0,-10z M104,44l10,0 0,10 -10,0 0,-10z M114,44l10,0 0,10 -10,0 0,-10z M124,44l10,0 0,10 -10,0 0,-10z M134,44l10,0 0,10 -10,0 0,-10z M164,44l10,0 0,10 -10,0 0,-10z M174,44l10,0 0,10 -10,0 0,-10z M194,44l10,0 0,10 -10,0 0,-10z M224,44l10,0 0,10 -10,0 0,-10z M264,44l10,0 0,10 -10,0 0,-10z M284,44l10,0 0,10 -10,0 0,-10z M294,44l10,0 0,10 -10,0 0,-10z M304,44l10,0 0,10 -10,0 0,-10z M324,44l10,0 0,10 -10,0 0,-10z M4,54l10,0 0,10 -10,0 0,-10z M64,54l10,0 0,10 -10,0 0,-10z M84,54l10,0 0,10 -10,0 0,-10z M134,54l10,0 0,10 -10,0 0,-10z M204,54l10,0 0,10 -10,0 0,-10z M214,54l10,0 0,10 -10,0 0,-10z M224,54l10,0 0,10 -10,0 0,-10z M234,54l10,0 0,10 -10,0 0,-10z M264,54l10,0 0,10 -10,0 0,-10z M324,54l10,0 0,10 -10,0 0,-10z M4,64l10,0 0,10 -10,0 0,-10z M14,64l10,0 0,10 -10,0 0,-10z M24,64l10,0 0,10 -10,0 0,-10z M34,64l10,0 0,10 -10,0 0,-10z M44,64l10,0 0,10 -10,0 0,-10z M54,64l10,0 0,10 -10,0 0,-10z M64,64l10,0 0,10 -10,0 0,-10z M84,64l10,0 0,10 -10,0 0,-10z M104,64l10,0 0,10 -10,0 0,-10z M124,64l10,0 0,10 -10,0 0,-10z M144,64l10,0 0,10 -10,0 0,-10z M164,64l10,0 0,10 -10,0 0,-10z M184,64l10,0 0,10 -10,0 0,-10z M204,64l10,0 0,10 -10,0 0,-10z M224,64l10,0 0,10 -10,0 0,-10z M244,64l10,0 0,10 -10,0 0,-10z M264,64l10,0 0,10 -10,0 0,-10z M274,64l10,0 0,10 -10,0 0,-10z M284,64l10,0 0,10 -10,0 0,-10z M294,64l10,0 0,10 -10,0 0,-10z M304,64l10,0 0,10 -10,0 0,-10z M314,64l10,0 0,10 -10,0 0,-10z M324,64l10,0 0,10 -10,0 0,-10z M104,74l10,0 0,10 -10,0 0,-10z M124,74l10,0 0,10 -10,0 0,-10z M144,74l10,0 0,10 -10,0 0,-10z M174,74l10,0 0,10 -10,0 0,-10z M194,74l10,0 0,10 -10,0 0,-10z M204,74l10,0 0,10 -10,0 0,-10z M214,74l10,0 0,10 -10,0 0,-10z M244,74l10,0 0,10 -10,0 0,-10z M4,84l10,0 0,10 -10,0 0,-10z M34,84l10,0 0,10 -10,0 0,-10z M54,84l10,0 0,10 -10,0 0,-10z M64,84l10,0 0,10 -10,0 0,-10z M84,84l10,0 0,10 -10,0 0,-10z M94,84l10,0 0,10 -10,0 0,-10z M114,84l10,0 0,10 -10,0 0,-10z M124,84l10,0 0,10 -10,0 0,-10z M134,84l10,0 0,10 -10,0 0,-10z M144,84l10,0 0,10 -10,0 0,-10z M154,84l10,0 0,10 -10,0 0,-10z M194,84l10,0 0,10 -10,0 0,-10z M204,84l10,0 0,10 -10,0 0,-10z M214,84l10,0 0,10 -10,0 0,-10z M224,84l10,0 0,10 -10,0 0,-10z M244,84l10,0 0,10 -10,0 0,-10z M254,84l10,0 0,10 -10,0 0,-10z M274,84l10,0 0,10 -10,0 0,-10z M14,94l10,0 0,10 -10,0 0,-10z M34,94l10,0 0,10 -10,0 0,-10z M44,94l10,0 0,10 -10,0 0,-10z M74,94l10,0 0,10 -10,0 0,-10z M84,94l10,0 0,10 -10,0 0,-10z M104,94l10,0 0,10 -10,0 0,-10z M114,94l10,0 0,10 -10,0 0,-10z M164,94l10,0 0,10 -10,0 0,-10z M184,94l10,0 0,10 -10,0 0,-10z M204,94l10,0 0,10 -10,0 0,-10z M224,94l10,0 0,10 -10,0 0,-10z M244,94l10,0 0,10 -10,0 0,-10z M254,94l10,0 0,10 -10,0 0,-10z M264,94l10,0 0,10 -10,0 0,-10z M274,94l10,0 0,10 -10,0 0,-10z M324,94l10,0 0,10 -10,0 0,-10z M34,104l10,0 0,10 -10,0 0,-10z M44,104l10,0 0,10 -10,0 0,-10z M54,104l10,0 0,10 -10,0 0,-10z M64,104l10,0 0,10 -10,0 0,-10z M114,104l10,0 0,10 -10,0 0,-10z M164,104l10,0 0,10 -10,0 0,-10z M174,104l10,0 0,10 -10,0 0,-10z M194,104l10,0 0,10 -10,0 0,-10z M214,104l10,0 0,10 -10,0 0,-10z M224,104l10,0 0,10 -10,0 0,-10z M244,104l10,0 0,10 -10,0 0,-10z M254,104l10,0 0,10 -10,0 0,-10z M264,104l10,0 0,10 -10,0 0,-10z M274,104l10,0 0,10 -10,0 0,-10z M284,104l10,0 0,10 -10,0 0,-10z M304,104l10,0 0,10 -10,0 0,-10z M324,104l10,0 0,10 -10,0 0,-10z M4,114l10,0 0,10 -10,0 0,-10z M34,114l10,0 0,10 -10,0 0,-10z M144,114l10,0 0,10 -10,0 0,-10z M164,114l10,0 0,10 -10,0 0,-10z M174,114l10,0 0,10 -10,0 0,-10z M194,114l10,0 0,10 -10,0 0,-10z M204,114l10,0 0,10 -10,0 0,-10z M234,114l10,0 0,10 -10,0 0,-10z M244,114l10,0 0,10 -10,0 0,-10z M284,114l10,0 0,10 -10,0 0,-10z M294,114l10,0 0,10 -10,0 0,-10z M324,114l10,0 0,10 -10,0 0,-10z M4,124l10,0 0,10 -10,0 0,-10z M44,124l10,0 0,10 -10,0 0,-10z M64,124l10,0 0,10 -10,0 0,-10z M84,124l10,0 0,10 -10,0 0,-10z M94,124l10,0 0,10 -10,0 0,-10z M104,124l10,0 0,10 -10,0 0,-10z M114,124l10,0 0,10 -10,0 0,-10z M124,124l10,0 0,10 -10,0 0,-10z M154,124l10,0 0,10 -10,0 0,-10z M194,124l10,0 0,10 -10,0 0,-10z M234,124l10,0 0,10 -10,0 0,-10z M244,124l10,0 0,10 -10,0 0,-10z M254,124l10,0 0,10 -10,0 0,-10z M264,124l10,0 0,10 -10,0 0,-10z M294,124l10,0 0,10 -10,0 0,-10z M314,124l10,0 0,10 -10,0 0,-10z M324,124l10,0 0,10 -10,0 0,-10z M4,134l10,0 0,10 -10,0 0,-10z M24,134l10,0 0,10 -10,0 0,-10z M34,134l10,0 0,10 -10,0 0,-10z M44,134l10,0 0,10 -10,0 0,-10z M84,134l10,0 0,10 -10,0 0,-10z M104,134l10,0 0,10 -10,0 0,-10z M124,134l10,0 0,10 -10,0 0,-10z M134,134l10,0 0,10 -10,0 0,-10z M154,134l10,0 0,10 -10,0 0,-10z M164,134l10,0 0,10 -10,0 0,-10z M174,134l10,0 0,10 -10,0 0,-10z M214,134l10,0 0,10 -10,0 0,-10z M224,134l10,0 0,10 -10,0 0,-10z M234,134l10,0 0,10 -10,0 0,-10z M264,134l10,0 0,10 -10,0 0,-10z M284,134l10,0 0,10 -10,0 0,-10z M294,134l10,0 0,10 -10,0 0,-10z M314,134l10,0 0,10 -10,0 0,-10z M324,134l10,0 0,10 -10,0 0,-10z M24,144l10,0 0,10 -10,0 0,-10z M44,144l10,0 0,10 -10,0 0,-10z M64,144l10,0 0,10 -10,0 0,-10z M74,144l10,0 0,10 -10,0 0,-10z M94,144l10,0 0,10 -10,0 0,-10z M124,144l10,0 0,10 -10,0 0,-10z M134,144l10,0 0,10 -10,0 0,-10z M144,144l10,0 0,10 -10,0 0,-10z M174,144l10,0 0,10 -10,0 0,-10z M204,144l10,0 0,10 -10,0 0,-10z M224,144l10,0 0,10 -10,0 0,-10z M234,144l10,0 0,10 -10,0 0,-10z M254,144l10,0 0,10 -10,0 0,-10z M264,144l10,0 0,10 -10,0 0,-10z M274,144l10,0 0,10 -10,0 0,-10z M284,144l10,0 0,10 -10,0 0,-10z M294,144l10,0 0,10 -10,0 0,-10z M314,144l10,0 0,10 -10,0 0,-10z M4,154l10,0 0,10 -10,0 0,-10z M14,154l10,0 0,10 -10,0 0,-10z M34,154l10,0 0,10 -10,0 0,-10z M74,154l10,0 0,10 -10,0 0,-10z M84,154l10,0 0,10 -10,0 0,-10z M104,154l10,0 0,10 -10,0 0,-10z M114,154l10,0 0,10 -10,0 0,-10z M124,154l10,0 0,10 -10,0 0,-10z M134,154l10,0 0,10 -10,0 0,-10z M144,154l10,0 0,10 -10,0 0,-10z M154,154l10,0 0,10 -10,0 0,-10z M174,154l10,0 0,10 -10,0 0,-10z M184,154l10,0 0,10 -10,0 0,-10z M194,154l10,0 0,10 -10,0 0,-10z M214,154l10,0 0,10 -10,0 0,-10z M224,154l10,0 0,10 -10,0 0,-10z M244,154l10,0 0,10 -10,0 0,-10z M264,154l10,0 0,10 -10,0 0,-10z M274,154l10,0 0,10 -10,0 0,-10z M294,154l10,0 0,10 -10,0 0,-10z M314,154l10,0 0,10 -10,0 0,-10z M4,164l10,0 0,10 -10,0 0,-10z M14,164l10,0 0,10 -10,0 0,-10z M24,164l10,0 0,10 -10,0 0,-10z M64,164l10,0 0,10 -10,0 0,-10z M114,164l10,0 0,10 -10,0 0,-10z M144,164l10,0 0,10 -10,0 0,-10z M174,164l10,0 0,10 -10,0 0,-10z M194,164l10,0 0,10 -10,0 0,-10z M204,164l10,0 0,10 -10,0 0,-10z M214,164l10,0 0,10 -10,0 0,-10z M234,164l10,0 0,10 -10,0 0,-10z M244,164l10,0 0,10 -10,0 0,-10z M264,164l10,0 0,10 -10,0 0,-10z M284,164l10,0 0,10 -10,0 0,-10z M314,164l10,0 0,10 -10,0 0,-10z M4,174l10,0 0,10 -10,0 0,-10z M14,174l10,0 0,10 -10,0 0,-10z M34,174l10,0 0,10 -10,0 0,-10z M44,174l10,0 0,10 -10,0 0,-10z M54,174l10,0 0,10 -10,0 0,-10z M74,174l10,0 0,10 -10,0 0,-10z M84,174l10,0 0,10 -10,0 0,-10z M94,174l10,0 0,10 -10,0 0,-10z M144,174l10,0 0,10 -10,0 0,-10z M214,174l10,0 0,10 -10,0 0,-10z M224,174l10,0 0,10 -10,0 0,-10z M234,174l10,0 0,10 -10,0 0,-10z M244,174l10,0 0,10 -10,0 0,-10z M254,174l10,0 0,10 -10,0 0,-10z M274,174l10,0 0,10 -10,0 0,-10z M294,174l10,0 0,10 -10,0 0,-10z M314,174l10,0 0,10 -10,0 0,-10z M4,184l10,0 0,10 -10,0 0,-10z M14,184l10,0 0,10 -10,0 0,-10z M34,184l10,0 0,10 -10,0 0,-10z M54,184l10,0 0,10 -10,0 0,-10z M64,184l10,0 0,10 -10,0 0,-10z M94,184l10,0 0,10 -10,0 0,-10z M124,184l10,0 0,10 -10,0 0,-10z M134,184l10,0 0,10 -10,0 0,-10z M144,184l10,0 0,10 -10,0 0,-10z M184,184l10,0 0,10 -10,0 0,-10z M224,184l10,0 0,10 -10,0 0,-10z M304,184l10,0 0,10 -10,0 0,-10z M314,184l10,0 0,10 -10,0 0,-10z M324,184l10,0 0,10 -10,0 0,-10z M14,194l10,0 0,10 -10,0 0,-10z M24,194l10,0 0,10 -10,0 0,-10z M34,194l10,0 0,10 -10,0 0,-10z M74,194l10,0 0,10 -10,0 0,-10z M104,194l10,0 0,10 -10,0 0,-10z M114,194l10,0 0,10 -10,0 0,-10z M124,194l10,0 0,10 -10,0 0,-10z M144,194l10,0 0,10 -10,0 0,-10z M174,194l10,0 0,10 -10,0 0,-10z M184,194l10,0 0,10 -10,0 0,-10z M194,194l10,0 0,10 -10,0 0,-10z M204,194l10,0 0,10 -10,0 0,-10z M214,194l10,0 0,10 -10,0 0,-10z M234,194l10,0 0,10 -10,0 0,-10z M254,194l10,0 0,10 -10,0 0,-10z M264,194l10,0 0,10 -10,0 0,-10z M274,194l10,0 0,10 -10,0 0,-10z M314,194l10,0 0,10 -10,0 0,-10z M14,204l10,0 0,10 -10,0 0,-10z M24,204l10,0 0,10 -10,0 0,-10z M34,204l10,0 0,10 -10,0 0,-10z M64,204l10,0 0,10 -10,0 0,-10z M94,204l10,0 0,10 -10,0 0,-10z M104,204l10,0 0,10 -10,0 0,-10z M114,204l10,0 0,10 -10,0 0,-10z M134,204l10,0 0,10 -10,0 0,-10z M154,204l10,0 0,10 -10,0 0,-10z M164,204l10,0 0,10 -10,0 0,-10z M174,204l10,0 0,10 -10,0 0,-10z M184,204l10,0 0,10 -10,0 0,-10z M224,204l10,0 0,10 -10,0 0,-10z M234,204l10,0 0,10 -10,0 0,-10z M244,204l10,0 0,10 -10,0 0,-10z M254,204l10,0 0,10 -10,0 0,-10z M314,204l10,0 0,10 -10,0 0,-10z M324,204l10,0 0,10 -10,0 0,-10z M14,214l10,0 0,10 -10,0 0,-10z M34,214l10,0 0,10 -10,0 0,-10z M54,214l10,0 0,10 -10,0 0,-10z M84,214l10,0 0,10 -10,0 0,-10z M94,214l10,0 0,10 -10,0 0,-10z M104,214l10,0 0,10 -10,0 0,-10z M124,214l10,0 0,10 -10,0 0,-10z M134,214l10,0 0,10 -10,0 0,-10z M144,214l10,0 0,10 -10,0 0,-10z M154,214l10,0 0,10 -10,0 0,-10z M164,214l10,0 0,10 -10,0 0,-10z M174,214l10,0 0,10 -10,0 0,-10z M184,214l10,0 0,10 -10,0 0,-10z M194,214l10,0 0,10 -10,0 0,-10z M204,214l10,0 0,10 -10,0 0,-10z M214,214l10,0 0,10 -10,0 0,-10z M224,214l10,0 0,10 -10,0 0,-10z M254,214l10,0 0,10 -10,0 0,-10z M264,214l10,0 0,10 -10,0 0,-10z M304,214l10,0 0,10 -10,0 0,-10z M314,214l10,0 0,10 -10,0 0,-10z M324,214l10,0 0,10 -10,0 0,-10z M4,224l10,0 0,10 -10,0 0,-10z M14,224l10,0 0,10 -10,0 0,-10z M34,224l10,0 0,10 -10,0 0,-10z M54,224l10,0 0,10 -10,0 0,-10z M64,224l10,0 0,10 -10,0 0,-10z M84,224l10,0 0,10 -10,0 0,-10z M94,224l10,0 0,10 -10,0 0,-10z M104,224l10,0 0,10 -10,0 0,-10z M124,224l10,0 0,10 -10,0 0,-10z M154,224l10,0 0,10 -10,0 0,-10z M174,224l10,0 0,10 -10,0 0,-10z M184,224l10,0 0,10 -10,0 0,-10z M204,224l10,0 0,10 -10,0 0,-10z M214,224l10,0 0,10 -10,0 0,-10z M244,224l10,0 0,10 -10,0 0,-10z M254,224l10,0 0,10 -10,0 0,-10z M264,224l10,0 0,10 -10,0 0,-10z M284,224l10,0 0,10 -10,0 0,-10z M294,224l10,0 0,10 -10,0 0,-10z M304,224l10,0 0,10 -10,0 0,-10z M324,224l10,0 0,10 -10,0 0,-10z M14,234l10,0 0,10 -10,0 0,-10z M34,234l10,0 0,10 -10,0 0,-10z M44,234l10,0 0,10 -10,0 0,-10z M104,234l10,0 0,10 -10,0 0,-10z M134,234l10,0 0,10 -10,0 0,-10z M144,234l10,0 0,10 -10,0 0,-10z M164,234l10,0 0,10 -10,0 0,-10z M214,234l10,0 0,10 -10,0 0,-10z M234,234l10,0 0,10 -10,0 0,-10z M264,234l10,0 0,10 -10,0 0,-10z M274,234l10,0 0,10 -10,0 0,-10z M294,234l10,0 0,10 -10,0 0,-10z M4,244l10,0 0,10 -10,0 0,-10z M64,244l10,0 0,10 -10,0 0,-10z M74,244l10,0 0,10 -10,0 0,-10z M84,244l10,0 0,10 -10,0 0,-10z M94,244l10,0 0,10 -10,0 0,-10z M124,244l10,0 0,10 -10,0 0,-10z M134,244l10,0 0,10 -10,0 0,-10z M154,244l10,0 0,10 -10,0 0,-10z M164,244l10,0 0,10 -10,0 0,-10z M174,244l10,0 0,10 -10,0 0,-10z M184,244l10,0 0,10 -10,0 0,-10z M194,244l10,0 0,10 -10,0 0,-10z M204,244l10,0 0,10 -10,0 0,-10z M214,244l10,0 0,10 -10,0 0,-10z M224,244l10,0 0,10 -10,0 0,-10z M244,244l10,0 0,10 -10,0 0,-10z M254,244l10,0 0,10 -10,0 0,-10z M264,244l10,0 0,10 -10,0 0,-10z M274,244l10,0 0,10 -10,0 0,-10z M284,244l10,0 0,10 -10,0 0,-10z M294,244l10,0 0,10 -10,0 0,-10z M84,254l10,0 0,10 -10,0 0,-10z M104,254l10,0 0,10 -10,0 0,-10z M144,254l10,0 0,10 -10,0 0,-10z M194,254l10,0 0,10 -10,0 0,-10z M204,254l10,0 0,10 -10,0 0,-10z M234,254l10,0 0,10 -10,0 0,-10z M244,254l10,0 0,10 -10,0 0,-10z M284,254l10,0 0,10 -10,0 0,-10z M294,254l10,0 0,10 -10,0 0,-10z M324,254l10,0 0,10 -10,0 0,-10z M4,264l10,0 0,10 -10,0 0,-10z M14,264l10,0 0,10 -10,0 0,-10z M24,264l10,0 0,10 -10,0 0,-10z M34,264l10,0 0,10 -10,0 0,-10z M44,264l10,0 0,10 -10,0 0,-10z M54,264l10,0 0,10 -10,0 0,-10z M64,264l10,0 0,10 -10,0 0,-10z M94,264l10,0 0,10 -10,0 0,-10z M114,264l10,0 0,10 -10,0 0,-10z M124,264l10,0 0,10 -10,0 0,-10z M144,264l10,0 0,10 -10,0 0,-10z M214,264l10,0 0,10 -10,0 0,-10z M244,264l10,0 0,10 -10,0 0,-10z M264,264l10,0 0,10 -10,0 0,-10z M284,264l10,0 0,10 -10,0 0,-10z M294,264l10,0 0,10 -10,0 0,-10z M304,264l10,0 0,10 -10,0 0,-10z M314,264l10,0 0,10 -10,0 0,-10z M4,274l10,0 0,10 -10,0 0,-10z M64,274l10,0 0,10 -10,0 0,-10z M84,274l10,0 0,10 -10,0 0,-10z M114,274l10,0 0,10 -10,0 0,-10z M154,274l10,0 0,10 -10,0 0,-10z M204,274l10,0 0,10 -10,0 0,-10z M244,274l10,0 0,10 -10,0 0,-10z M284,274l10,0 0,10 -10,0 0,-10z M4,284l10,0 0,10 -10,0 0,-10z M24,284l10,0 0,10 -10,0 0,-10z M34,284l10,0 0,10 -10,0 0,-10z M44,284l10,0 0,10 -10,0 0,-10z M64,284l10,0 0,10 -10,0 0,-10z M114,284l10,0 0,10 -10,0 0,-10z M154,284l10,0 0,10 -10,0 0,-10z M164,284l10,0 0,10 -10,0 0,-10z M224,284l10,0 0,10 -10,0 0,-10z M244,284l10,0 0,10 -10,0 0,-10z M254,284l10,0 0,10 -10,0 0,-10z M264,284l10,0 0,10 -10,0 0,-10z M274,284l10,0 0,10 -10,0 0,-10z M284,284l10,0 0,10 -10,0 0,-10z M294,284l10,0 0,10 -10,0 0,-10z M4,294l10,0 0,10 -10,0 0,-10z M24,294l10,0 0,10 -10,0 0,-10z M34,294l10,0 0,10 -10,0 0,-10z M44,294l10,0 0,10 -10,0 0,-10z M64,294l10,0 0,10 -10,0 0,-10z M84,294l10,0 0,10 -10,0 0,-10z M94,294l10,0 0,10 -10,0 0,-10z M134,294l10,0 0,10 -10,0 0,-10z M154,294l10,0 0,10 -10,0 0,-10z M174,294l10,0 0,10 -10,0 0,-10z M194,294l10,0 0,10 -10,0 0,-10z M204,294l10,0 0,10 -10,0 0,-10z M214,294l10,0 0,10 -10,0 0,-10z M264,294l10,0 0,10 -10,0 0,-10z M284,294l10,0 0,10 -10,0 0,-10z M294,294l10,0 0,10 -10,0 0,-10z M314,294l10,0 0,10 -10,0 0,-10z M4,304l10,0 0,10 -10,0 0,-10z M24,304l10,0 0,10 -10,0 0,-10z M34,304l10,0 0,10 -10,0 0,-10z M44,304l10,0 0,10 -10,0 0,-10z M64,304l10,0 0,10 -10,0 0,-10z M94,304l10,0 0,10 -10,0 0,-10z M124,304l10,0 0,10 -10,0 0,-10z M134,304l10,0 0,10 -10,0 0,-10z M144,304l10,0 0,10 -10,0 0,-10z M174,304l10,0 0,10 -10,0 0,-10z M214,304l10,0 0,10 -10,0 0,-10z M224,304l10,0 0,10 -10,0 0,-10z M234,304l10,0 0,10 -10,0 0,-10z M284,304l10,0 0,10 -10,0 0,-10z M304,304l10,0 0,10 -10,0 0,-10z M324,304l10,0 0,10 -10,0 0,-10z M4,314l10,0 0,10 -10,0 0,-10z M64,314l10,0 0,10 -10,0 0,-10z M114,314l10,0 0,10 -10,0 0,-10z M124,314l10,0 0,10 -10,0 0,-10z M144,314l10,0 0,10 -10,0 0,-10z M154,314l10,0 0,10 -10,0 0,-10z M164,314l10,0 0,10 -10,0 0,-10z M174,314l10,0 0,10 -10,0 0,-10z M214,314l10,0 0,10 -10,0 0,-10z M244,314l10,0 0,10 -10,0 0,-10z M254,314l10,0 0,10 -10,0 0,-10z M4,324l10,0 0,10 -10,0 0,-10z M14,324l10,0 0,10 -10,0 0,-10z M24,324l10,0 0,10 -10,0 0,-10z M34,324l10,0 0,10 -10,0 0,-10z M44,324l10,0 0,10 -10,0 0,-10z M54,324l10,0 0,10 -10,0 0,-10z M64,324l10,0 0,10 -10,0 0,-10z M84,324l10,0 0,10 -10,0 0,-10z M124,324l10,0 0,10 -10,0 0,-10z M164,324l10,0 0,10 -10,0 0,-10z M214,324l10,0 0,10 -10,0 0,-10z M224,324l10,0 0,10 -10,0 0,-10z M244,324l10,0 0,10 -10,0 0,-10z M254,324l10,0 0,10 -10,0 0,-10z M284,324l10,0 0,10 -10,0 0,-10z M314,324l10,0 0,10 -10,0 0,-10z " stroke="transparent" fill="black"/></svg>